<?xml version="1.0" standalone="no"?>
<!DOCTYPE svg PUBLIC "-//W3C//DTD SVG 20010904//EN"
 "http://www.w3.org/TR/2001/REC-SVG-20010904/DTD/svg10.dtd">
<svg version="1.0" xmlns="http://www.w3.org/2000/svg"
 width="512.000000pt" height="512.000000pt" viewBox="0 0 512.000000 512.000000"
 preserveAspectRatio="xMidYMid meet">
<metadata>
Created by potrace 1.11, written by Peter Selinger 2001-2013
</metadata>
<g transform="translate(0.000000,512.000000) scale(0.100000,-0.100000)"
fill="#000000" stroke="none">
<path d="M1620 5059 c-106 -135 -129 -320 -56 -461 26 -51 26 -51 6 -65 -11
-8 -48 -39 -82 -69 -35 -30 -67 -54 -73 -54 -5 0 -53 31 -105 68 -384 275
-831 421 -1207 396 l-103 -6 0 -107 c0 -115 21 -326 46 -461 50 -272 155 -533
292 -723 111 -154 294 -308 446 -372 l66 -28 0 -46 c0 -63 -26 -244 -44 -312
-8 -31 -40 -112 -70 -181 -101 -234 -117 -324 -117 -668 l0 -244 -33 -91 c-45
-121 -60 -219 -54 -363 6 -130 36 -239 102 -369 210 -414 740 -742 1391 -859
325 -58 745 -58 1070 0 382 69 733 213 1003 413 157 116 310 292 388 446 66
130 96 239 102 369 6 144 -9 242 -54 363 l-33 91 0 244 c0 344 -16 434 -117
668 -30 69 -62 150 -70 181 -18 68 -44 249 -44 312 l0 46 66 28 c152 64 335
218 446 372 137 190 242 451 292 723 25 135 46 346 46 461 l0 107 -102 6
c-377 25 -824 -121 -1208 -396 -52 -37 -100 -68 -105 -68 -6 0 -38 24 -73 54
-34 30 -71 61 -82 69 -20 14 -20 14 6 65 73 141 50 326 -56 461 -44 56 -60 63
-60 29 -1 -74 -91 -176 -209 -236 -127 -66 -135 -67 -253 -38 -128 31 -261 46
-418 46 -157 0 -290 -15 -418 -46 -118 -29 -126 -28 -253 38 -118 60 -208 162
-209 236 0 34 -16 27 -60 -29z m269 -1288 c82 -25 138 -60 193 -119 69 -73
118 -182 118 -261 0 -27 -3 -32 -17 -26 -50 19 -127 27 -215 23 -88 -4 -106
-9 -175 -43 -100 -49 -191 -139 -254 -253 l-46 -82 -46 49 c-101 108 -140 260
-102 404 20 78 45 124 99 184 111 123 289 173 445 124z m1624 -11 c283 -107
368 -479 160 -701 l-46 -49 -46 82 c-63 114 -154 204 -254 253 -69 34 -87 39
-175 43 -88 4 -165 -4 -215 -23 -14 -6 -17 -2 -17 22 0 37 26 126 52 177 27
52 103 132 156 163 114 67 262 80 385 33z"/>
</g>
</svg>
