<?xml version="1.0" standalone="no"?>
<!DOCTYPE svg PUBLIC "-//W3C//DTD SVG 20010904//EN"
 "http://www.w3.org/TR/2001/REC-SVG-20010904/DTD/svg10.dtd">
<svg version="1.0" xmlns="http://www.w3.org/2000/svg"
 width="512.000000pt" height="512.000000pt" viewBox="0 0 512.000000 512.000000"
 preserveAspectRatio="xMidYMid meet">
<metadata>
Created by potrace 1.11, written by Peter Selinger 2001-2013
</metadata>
<g transform="translate(0.000000,512.000000) scale(0.100000,-0.100000)"
fill="#000000" stroke="none">
<path d="M3049 4873 c-9 -2 -25 -25 -34 -51 -38 -100 -122 -188 -225 -233 -52
-22 -68 -24 -275 -26 -121 -2 -237 -8 -257 -13 -32 -9 -42 -7 -85 18 -99 58
-141 67 -333 67 -161 0 -180 -2 -240 -24 -69 -26 -124 -60 -178 -110 -29 -27
-36 -30 -82 -24 -99 12 -217 -51 -265 -141 -11 -20 -25 -36 -31 -36 -7 0 -26
-16 -42 -35 -32 -36 -46 -82 -38 -125 2 -14 5 -30 5 -37 2 -20 54 -75 86 -89
29 -13 28 -13 -35 -14 l-65 0 2 69 c2 87 -26 151 -89 199 -73 56 -179 68 -237
25 -98 -73 -95 -201 6 -269 l32 -22 -85 -4 c-90 -5 -117 -17 -158 -72 -19 -24
-21 -44 -24 -184 -2 -94 1 -172 7 -194 14 -46 71 -96 119 -104 35 -6 39 -11
71 -80 19 -41 37 -74 40 -74 4 0 23 34 44 76 l37 75 253 -3 c245 -3 253 -4
290 -27 21 -13 50 -41 65 -63 22 -34 26 -52 26 -107 0 -79 -23 -124 -87 -167
-40 -27 -48 -29 -174 -32 l-132 -4 -38 76 c-20 42 -40 76 -43 76 -3 0 -22 -32
-41 -71 -27 -56 -42 -75 -71 -90 -22 -11 -40 -29 -44 -43 -3 -13 -4 -111 -2
-217 3 -155 7 -204 22 -243 l18 -48 -36 -78 c-63 -139 -80 -224 -81 -400 0
-131 4 -168 23 -239 48 -177 136 -325 269 -453 56 -54 54 -43 33 -168 -5 -30
-11 -68 -14 -85 -9 -61 -18 -121 -22 -139 -5 -25 -45 -296 -48 -324 -2 -12 -5
-24 -7 -27 -3 -2 -87 -5 -188 -5 -236 -2 -292 -20 -377 -118 -35 -41 -74 -135
-74 -179 l0 -23 435 0 c450 0 478 2 490 42 5 13 16 18 39 18 55 0 123 29 162
70 55 56 73 108 73 213 1 159 43 204 204 222 51 6 124 36 153 64 18 16 22 16
85 -11 115 -48 173 -57 357 -53 92 2 176 6 187 8 11 3 42 8 68 11 215 29 439
97 661 200 94 44 101 46 135 34 44 -15 265 -15 302 0 25 10 37 -1 280 -244
l254 -254 -160 -1 c-172 -1 -175 -1 -232 -19 -106 -35 -194 -142 -210 -255
l-6 -45 391 0 c415 0 437 2 448 47 4 13 8 23 10 23 2 0 24 -13 50 -30 116 -73
254 -38 319 81 36 68 35 102 -15 319 -68 293 -81 363 -75 387 6 27 45 48 103
56 78 10 149 61 191 136 19 37 22 134 5 184 -17 50 -69 108 -119 131 -20 10
-61 21 -92 26 -70 12 -88 28 -88 81 0 48 27 74 86 83 74 12 93 108 28 141 -49
26 -166 8 -256 -39 l-30 -15 -13 57 c-6 31 -26 87 -44 123 l-31 65 65 31 c120
57 220 181 255 314 42 157 -8 341 -123 455 -91 90 -170 127 -308 142 -93 11
-137 31 -164 74 -31 51 -35 102 -11 151 29 59 72 85 160 96 172 22 286 134
299 296 12 161 -102 312 -258 340 -35 7 -35 6 10 -17 58 -30 95 -98 85 -156
-16 -94 -77 -137 -211 -146 -295 -21 -541 -219 -634 -511 -32 -101 -35 -270
-7 -383 l21 -84 -73 -68 c-149 -141 -326 -237 -516 -279 l-84 -19 -33 25 c-18
13 -52 29 -76 35 -34 8 -42 14 -36 27 36 81 48 133 48 211 l1 85 47 47 c83 83
119 178 114 299 -6 129 -78 254 -183 316 -23 13 -43 27 -43 30 0 3 16 24 36
46 41 45 88 140 103 207 6 25 8 81 6 125 -6 122 -44 214 -129 303 -31 34 -46
57 -39 59 21 7 156 100 183 125 80 75 159 199 194 306 21 63 24 82 32 188 5
67 3 83 -11 97 -16 17 -25 19 -56 10z m682 -2422 l51 -51 -136 0 -136 0 28 58
c16 31 37 81 47 110 l17 54 39 -60 c22 -33 62 -83 90 -111z"/>
</g>
</svg>
